<?xml version="1.0" encoding="UTF-8"?>
<svg id="svg5" xmlns="http://www.w3.org/2000/svg" viewBox="0 0 16 16">
  <defs>
    <style>
      .cls-1 {
        fill: #db3b4b;
      }
    </style>
  </defs>
  <g id="layer1">
    <g id="text2059">
      <path id="path15408" class="cls-1" d="M1.27,12.84L2.92,2.87c.05-.24.07-.52.07-.83,0-.48-.08-.91-.24-1.28h9.89c.88,0,1.54.13,1.98.4.56.34.84.92.84,1.74,0,.27-.02.54-.07.81l-.22,1.4c-.17,1.03-.56,1.73-1.15,2.08-.45.27-1.18.4-2.18.4.84,0,1.45.09,1.81.28.5.26.75.74.75,1.47,0,.21-.02.45-.05.7l-.33,1.96c-.18,1.12-.62,1.91-1.32,2.38-.56.37-1.36.55-2.4.55H.41c.16-.21.27-.4.35-.55.26-.48.43-1,.51-1.55ZM5.94,12.61h2.29c.42,0,.72-.06.92-.19.24-.17.4-.47.48-.91l.24-1.4c.04-.21.05-.4.05-.55,0-.26-.07-.43-.2-.51-.13-.09-.38-.13-.75-.13h-2.4l-.62,3.7ZM6.95,6.57h2.53c.4,0,.69-.12.86-.36.13-.18.24-.52.33-1.02l.09-.55c.02-.18.04-.34.05-.47.02-.14.04-.25.04-.32,0-.24-.05-.43-.15-.55-.1-.13-.27-.19-.53-.19h-2.66l-.57,3.47Z"/>
    </g>
  </g>
</svg>